<?xml version="1.0" standalone="no"?>
<!DOCTYPE svg PUBLIC "-//W3C//DTD SVG 20010904//EN"
 "http://www.w3.org/TR/2001/REC-SVG-20010904/DTD/svg10.dtd">
<svg version="1.0" xmlns="http://www.w3.org/2000/svg"
 width="244.000000pt" height="298.000000pt" viewBox="0 0 244.000000 298.000000"
 padding="3pt"
 preserveAspectRatio="xMidYMid meet">
<g transform="translate(0.000000,298.000000) scale(0.100000,-0.100000) "
fill="#fff" stroke="none">
<path d="M0 1490 l0 -1490 1220 0 1220 0 0 1490 0 1490 -1220 0 -1220 0 0
-1490z m1484 782 c123 -246 366 -729 540 -1075 l317 -627 -241 0 -241 0 -117
240 -117 240 -225 -3 c-222 -3 -226 -3 -312 -34 -113 -40 -185 -82 -258 -150
-59 -54 -141 -172 -175 -250 l-19 -43 -244 0 -243 0 162 318 c89 174 206 403
259 507 54 105 227 448 384 763 158 315 291 570 296 567 5 -3 110 -207 234
-453z" fill="#000000"/>
<path d="M955 1933 c-159 -316 -368 -728 -462 -914 -95 -187 -173 -342 -173
-344 0 -3 56 -5 124 -5 l124 0 258 513 c455 905 420 840 436 814 7 -12 160
-316 338 -674 l325 -653 122 0 c68 0 123 4 123 8 0 5 -98 204 -219 443 -120
239 -325 645 -455 904 -130 259 -240 473 -244 477 -4 4 -137 -252 -297 -569z" fill="#000000"/>
<path d="M1220 1737 c-14 -29 -99 -197 -190 -374 -90 -177 -161 -325 -158
-328 2 -3 31 9 64 26 138 74 274 101 489 99 66 -1 125 -1 132 -1 10 1 -296
629 -307 630 -3 0 -16 -23 -30 -52z" fill="#000000"/>
</g>
</svg>
